<?xml version="1.0" standalone="no"?>
<!DOCTYPE svg PUBLIC "-//W3C//DTD SVG 20010904//EN"
 "http://www.w3.org/TR/2001/REC-SVG-20010904/DTD/svg10.dtd">
<svg version="1.0" xmlns="http://www.w3.org/2000/svg"
 width="220.000000pt" height="183.000000pt" viewBox="0 0 220.000000 183.000000"
 preserveAspectRatio="xMidYMid meet">

<g transform="translate(0.000000,183.000000) scale(0.100000,-0.100000)"
fill="#1a1a1b;" stroke="none">
<path d="M960 1799 c-84 -38 -127 -114 -154 -276 -11 -66 -13 -107 -6 -163 5
-41 9 -106 10 -143 l0 -68 -72 6 c-40 3 -118 10 -173 16 -55 6 -174 11 -265
12 -150 2 -168 0 -199 -18 -70 -41 -109 -177 -91 -317 19 -146 55 -204 143
-230 48 -14 423 -18 554 -5 l83 7 -6 -137 c-4 -102 -2 -166 10 -243 19 -125
46 -184 98 -213 37 -22 37 -22 109 -3 136 35 379 142 579 255 99 56 110 62
291 181 71 47 229 201 269 263 22 33 43 76 46 95 24 128 -64 289 -268 487
-180 175 -365 309 -576 415 -194 98 -295 119 -382 79z m203 -50 c51 -17 154
-67 279 -136 88 -48 321 -235 434 -348 179 -179 268 -328 249 -418 -28 -132
-219 -304 -545 -492 -218 -125 -445 -228 -574 -261 -110 -27 -119 -18 -152
171 -13 71 -15 126 -10 259 l6 168 -22 -6 c-96 -27 -636 -32 -689 -6 -39 18
-68 78 -79 165 -12 93 -4 177 22 227 32 66 46 70 235 69 92 0 222 -5 288 -11
66 -5 146 -10 177 -10 50 0 58 3 64 23 4 12 8 121 8 242 1 206 2 223 24 269
23 50 51 84 87 104 32 18 130 14 198 -9z"/>
</g>
</svg>
