<?xml version="1.0" standalone="no"?>
<!DOCTYPE svg PUBLIC "-//W3C//DTD SVG 20010904//EN"
 "http://www.w3.org/TR/2001/REC-SVG-20010904/DTD/svg10.dtd">
<svg version="1.0" xmlns="http://www.w3.org/2000/svg"
 width="1018.000000pt" height="752.000000pt" viewBox="0 0 1018.000000 752.000000"
 preserveAspectRatio="xMidYMid meet">

<g transform="translate(0.000000,752.000000) scale(0.100000,-0.100000)"
fill="#1a1a1b" stroke="none">
<path d="M6303 7252 c-97 -3 -124 -17 -50 -26 156 -20 325 -35 343 -30 12 3
62 0 110 -6 49 -6 139 -16 199 -20 61 -5 171 -15 245 -23 74 -8 138 -13 142
-11 4 3 49 -5 100 -16 192 -43 276 -60 393 -80 66 -11 149 -29 185 -40 36 -10
94 -26 130 -35 36 -9 97 -26 135 -37 39 -12 93 -28 120 -36 28 -8 66 -21 85
-30 19 -8 51 -18 70 -23 19 -4 60 -15 90 -24 30 -9 75 -23 100 -30 49 -15 103
-33 135 -46 11 -4 56 -20 100 -35 44 -14 89 -32 101 -39 12 -8 85 -48 163 -89
332 -178 424 -252 495 -400 25 -51 47 -113 50 -141 3 -27 15 -104 26 -170 24
-143 74 -500 85 -610 1 -16 9 -66 18 -110 16 -83 23 -151 32 -315 3 -52 7
-102 10 -110 2 -8 6 -96 9 -195 4 -99 9 -205 12 -235 32 -307 39 -1392 11
-1970 -9 -206 -22 -402 -27 -435 -6 -33 -15 -112 -20 -175 -6 -63 -14 -164
-19 -225 -5 -60 -14 -139 -20 -175 -6 -36 -18 -117 -27 -180 -9 -63 -25 -149
-36 -190 -11 -41 -23 -91 -28 -110 -68 -293 -297 -539 -575 -618 -228 -65
-349 -69 -1135 -42 -978 35 -2520 53 -3200 38 -756 -17 -838 -19 -915 -23 -44
-2 -150 -7 -235 -10 -211 -7 -614 -24 -730 -30 -262 -14 -824 -17 -951 -6
-166 15 -374 45 -494 72 -121 27 -331 97 -440 148 -176 82 -346 215 -424 331
-43 64 -101 180 -101 201 0 8 -4 19 -9 25 -26 27 -142 594 -206 1009 -9 55
-20 125 -25 155 -5 30 -12 80 -15 110 -3 30 -12 98 -20 150 -8 52 -19 147 -25
210 -6 63 -16 153 -22 200 -10 85 -13 131 -23 290 -3 47 -7 99 -9 115 -2 17
-9 136 -15 265 -6 129 -16 260 -21 290 -12 63 -11 610 1 895 5 105 12 332 18
506 l9 316 32 94 c62 180 97 232 247 355 57 46 247 150 343 187 14 5 39 15 55
23 51 22 255 77 355 94 36 6 87 16 113 22 26 6 50 8 53 5 3 -3 20 -1 37 4 86
25 381 66 532 73 55 3 154 10 220 15 413 35 469 38 870 51 555 18 1061 23
1230 11 88 -6 230 -16 315 -21 183 -11 434 -36 505 -49 28 -6 104 -15 170 -22
66 -6 154 -17 195 -25 202 -39 360 -59 360 -44 0 13 -637 146 -800 167 -19 2
-78 10 -130 18 -52 8 -203 23 -335 35 -132 11 -280 25 -330 32 -109 14 -766
13 -1065 -2 -113 -5 -295 -10 -405 -10 -185 0 -439 -13 -775 -41 -74 -6 -173
-13 -220 -15 -47 -3 -168 -16 -270 -29 -102 -13 -203 -26 -225 -28 -145 -15
-420 -96 -621 -182 -170 -74 -246 -127 -452 -319 -57 -53 -116 -189 -147 -336
-16 -76 -36 -335 -29 -368 2 -9 6 -359 8 -777 3 -469 8 -791 15 -840 6 -44 15
-179 21 -300 10 -207 13 -271 25 -440 11 -158 27 -304 40 -370 7 -38 21 -140
30 -225 23 -217 44 -366 59 -425 8 -27 19 -81 24 -120 6 -38 18 -122 28 -185
9 -63 22 -133 29 -155 8 -22 21 -80 30 -130 31 -162 52 -239 98 -346 55 -129
89 -180 192 -283 190 -191 427 -306 845 -412 96 -24 195 -44 220 -44 25 0 95
-7 155 -16 61 -9 155 -20 210 -26 129 -14 583 -14 750 1 72 6 180 15 240 21
61 5 380 14 710 20 351 6 637 16 690 23 66 9 350 12 1060 11 1028 -1 1890 -16
2270 -40 491 -32 590 -35 885 -31 303 4 331 7 530 49 157 34 343 133 482 257
103 93 238 323 259 441 6 36 23 101 37 145 26 85 35 144 52 345 6 69 20 175
30 237 31 172 55 498 65 853 27 1041 32 1512 14 1590 -6 25 -12 155 -14 290
-2 135 -8 286 -14 335 -6 50 -13 146 -15 215 -3 69 -12 159 -20 200 -9 41 -18
118 -20 170 -9 173 -26 334 -45 430 -11 52 -22 131 -25 175 -4 44 -13 98 -21
120 -8 22 -14 58 -15 79 -1 89 -49 311 -81 377 -19 39 -149 152 -215 188 -21
12 -54 33 -72 46 -19 13 -58 33 -87 44 -29 11 -75 33 -102 50 -26 16 -93 44
-148 61 -55 18 -120 43 -145 55 -25 12 -85 32 -135 45 -49 13 -102 29 -117 37
-32 15 -136 52 -223 77 -33 10 -84 27 -113 38 -62 24 -84 29 -252 64 -69 14
-143 33 -165 43 -22 10 -83 25 -135 35 -52 9 -126 24 -165 32 -114 24 -173 34
-305 50 -144 17 -594 41 -816 43 -83 1 -179 3 -215 4 -35 1 -106 1 -156 -1z"/>
<path d="M6168 7243 c7 -3 16 -2 19 1 4 3 -2 6 -13 5 -11 0 -14 -3 -6 -6z"/>
</g>
</svg>
