<?xml version="1.0" standalone="no"?>
<!DOCTYPE svg PUBLIC "-//W3C//DTD SVG 20010904//EN"
 "http://www.w3.org/TR/2001/REC-SVG-20010904/DTD/svg10.dtd">
<svg version="1.0" xmlns="http://www.w3.org/2000/svg"
 width="183.000000pt" height="183.000000pt" viewBox="0 0 183.000000 183.000000"
 preserveAspectRatio="xMidYMid meet">

<g transform="translate(0.000000,183.000000) scale(0.100000,-0.100000)"
fill="#1a1a1b" stroke="none">
<path d="M1305 1821 c-128 -18 -187 -54 -206 -124 -9 -32 -8 -84 1 -212 17
-226 17 -688 1 -1010 -15 -289 -15 -349 1 -379 52 -98 312 -121 466 -42 48 25
54 57 40 225 -19 244 -16 802 6 1031 20 207 22 365 6 415 -6 17 -21 37 -33 46
-60 42 -181 64 -282 50z m228 -73 c62 -31 63 -39 41 -316 -21 -272 -26 -761
-11 -1113 l9 -196 -27 -21 c-41 -32 -99 -45 -205 -45 -105 -1 -178 22 -199 62
-14 24 -9 308 8 556 16 215 15 622 0 827 -14 193 -11 206 51 238 83 42 257 47
333 8z"/>
<path d="M363 1799 c-42 -13 -70 -29 -88 -51 -31 -36 -30 4 -5 -423 14 -238 8
-519 -16 -780 -10 -104 -18 -245 -18 -313 1 -143 9 -162 90 -201 110 -55 340
-33 408 38 41 42 44 85 28 322 -10 152 -11 286 -6 524 4 176 8 367 9 425 1 58
5 161 9 230 11 156 4 175 -81 216 -50 24 -72 28 -163 31 -82 2 -118 -2 -167
-18z m308 -54 c27 -14 55 -37 61 -50 8 -18 6 -113 -8 -372 -22 -409 -24 -786
-5 -1005 16 -185 12 -199 -62 -237 -40 -20 -67 -25 -156 -29 -100 -4 -110 -3
-158 22 -56 28 -61 37 -64 111 -2 59 17 336 31 450 13 101 13 524 0 675 -5 63
-10 178 -11 254 l-3 140 28 20 c40 31 100 44 204 45 81 1 99 -2 143 -24z"/>
</g>
</svg>
