<?xml version="1.0" standalone="no"?>
<!DOCTYPE svg PUBLIC "-//W3C//DTD SVG 20010904//EN"
 "http://www.w3.org/TR/2001/REC-SVG-20010904/DTD/svg10.dtd">
<svg version="1.0" xmlns="http://www.w3.org/2000/svg"
 width="300.000000pt" height="205.000000pt" viewBox="0 0 300.000000 205.000000"
 preserveAspectRatio="xMidYMid meet">

<g transform="translate(0.000000,205.000000) scale(0.100000,-0.100000)"
fill="#1a1a1b" stroke="none">
<path d="M2700 1945 c0 -50 -4 -96 -9 -104 -12 -19 -122 -26 -736 -47 -492
-17 -1014 -15 -1565 4 l-185 7 -7 73 c-15 175 -38 186 -38 19 l0 -98 -45 7
c-50 7 -115 -2 -115 -16 0 -6 36 -10 80 -10 55 0 82 -4 85 -12 3 -7 9 -146 15
-308 5 -162 16 -484 24 -715 8 -231 13 -421 11 -424 -9 -8 -93 -20 -149 -21
-94 0 -54 -15 57 -20 l102 -5 2 -55 c9 -193 33 -242 33 -66 0 81 3 106 15 116
13 11 144 12 658 6 353 -4 770 -11 927 -16 157 -5 407 -12 555 -16 149 -4 278
-11 288 -16 15 -7 17 -24 17 -118 0 -67 4 -110 10 -110 6 0 10 8 11 18 1 40 9
139 14 168 7 38 22 43 120 45 39 0 79 4 90 9 19 7 18 8 -5 13 -14 3 -63 8
-109 12 -46 3 -87 8 -91 10 -4 3 -8 123 -9 267 0 145 -3 484 -7 754 l-7 491
69 7 c38 4 78 10 89 13 18 6 18 7 -5 14 -14 4 -55 7 -91 8 l-66 1 -5 91 c-8
125 -28 143 -28 24z m6 -915 c5 -415 9 -756 8 -758 -2 -3 -474 15 -699 27
-136 8 -291 10 -1275 16 l-475 3 -7 254 c-4 139 -12 339 -18 443 -18 311 -29
739 -20 749 4 4 46 6 92 2 550 -37 1725 -30 2228 13 52 5 109 8 125 7 l30 -1
11 -755z"/>
</g>
</svg>
