<?xml version="1.0" standalone="no"?>
<!DOCTYPE svg PUBLIC "-//W3C//DTD SVG 20010904//EN"
 "http://www.w3.org/TR/2001/REC-SVG-20010904/DTD/svg10.dtd">
<svg version="1.0" xmlns="http://www.w3.org/2000/svg"
 width="264.000000pt" height="271.000000pt" viewBox="0 0 264.000000 271.000000"
 preserveAspectRatio="xMidYMid meet">

<g transform="translate(0.000000,271.000000) scale(0.100000,-0.100000)"
fill="#1a1a1b" stroke="none">
<path d="M1769 2565 c109 -62 282 -203 376 -307 120 -134 174 -224 243 -409
74 -201 81 -234 82 -417 2 -146 -4 -186 -45 -332 -30 -107 -56 -162 -133 -280
-120 -186 -238 -300 -432 -419 -274 -167 -689 -178 -1007 -26 -91 44 -250 148
-319 208 -85 75 -203 226 -250 322 -94 191 -124 426 -89 695 32 243 89 374
226 527 102 114 163 167 273 241 184 123 304 165 566 196 19 2 -19 3 -85 1
-91 -2 -140 -9 -201 -28 -231 -69 -531 -293 -671 -501 -57 -85 -85 -152 -120
-292 -26 -103 -27 -122 -28 -339 0 -220 1 -234 27 -328 34 -118 92 -241 153
-322 84 -112 206 -235 293 -297 333 -238 675 -303 1045 -199 169 48 341 153
488 300 146 147 249 312 309 492 47 144 62 261 51 422 -8 125 -13 147 -62 289
-52 153 -97 255 -142 321 -59 87 -171 217 -234 273 -117 104 -291 221 -353
238 -14 4 4 -9 39 -29z"/>
<path d="M1345 2550 c17 -4 39 -8 50 -8 16 0 15 2 -5 8 -14 4 -36 8 -50 8 -22
0 -22 -1 5 -8z"/>
</g>
</svg>
