<?xml version="1.0" standalone="no"?>
<!DOCTYPE svg PUBLIC "-//W3C//DTD SVG 20010904//EN"
 "http://www.w3.org/TR/2001/REC-SVG-20010904/DTD/svg10.dtd">
<svg version="1.0" xmlns="http://www.w3.org/2000/svg"
 width="1020.000000pt" height="340.000000pt" viewBox="0 0 1020.000000 340.000000"
 preserveAspectRatio="xMidYMid meet">

<g transform="translate(0.000000,340.000000) scale(0.100000,-0.100000)"
fill="#1a1a1b" stroke="none">
<path d="M4710 3240 c0 -5 7 -10 15 -10 8 0 15 5 15 10 0 6 -7 10 -15 10 -8 0
-15 -4 -15 -10z"/>
<path d="M4770 3240 c-17 -10 71 -29 185 -40 50 -5 149 -15 220 -23 72 -8 162
-15 202 -16 40 0 116 -7 170 -16 54 -8 143 -17 198 -20 55 -3 138 -12 185 -20
118 -19 231 -33 320 -40 72 -6 137 -15 245 -35 28 -6 93 -14 145 -20 52 -6
142 -19 200 -30 130 -24 268 -45 383 -60 48 -6 115 -19 150 -30 34 -11 80 -20
102 -20 22 0 63 -7 90 -16 28 -9 80 -20 117 -24 38 -5 81 -16 97 -25 17 -8 48
-15 71 -15 23 0 61 -9 86 -20 25 -12 53 -18 63 -15 11 3 49 -6 86 -20 37 -14
71 -22 76 -19 6 3 33 -1 62 -9 29 -9 75 -20 102 -27 28 -6 75 -17 106 -24 30
-8 66 -19 79 -26 13 -7 37 -13 54 -12 16 0 46 -8 67 -19 21 -10 48 -19 59 -19
11 0 38 -9 60 -20 22 -11 54 -20 72 -20 18 0 42 -7 52 -15 11 -8 34 -15 50
-15 17 0 45 -9 61 -20 17 -11 41 -20 55 -20 14 0 40 -9 58 -20 18 -11 45 -20
60 -20 16 0 37 -7 48 -15 10 -8 31 -15 45 -15 14 0 34 -7 45 -15 10 -8 29 -15
40 -15 12 0 33 -9 47 -20 14 -11 35 -20 46 -20 12 0 29 -9 38 -20 10 -11 27
-20 38 -20 11 -1 38 -14 60 -30 22 -15 58 -38 81 -49 55 -29 217 -185 249
-241 64 -114 81 -157 111 -290 32 -145 -18 -427 -104 -574 -37 -64 -121 -176
-131 -176 -3 0 -24 -17 -46 -39 -57 -54 -149 -129 -225 -182 -72 -51 -225
-129 -251 -129 -10 0 -20 -4 -23 -9 -3 -4 -27 -14 -53 -21 -27 -6 -57 -16 -68
-20 -11 -5 -33 -11 -50 -15 -16 -3 -50 -11 -75 -16 -58 -13 -213 -39 -265 -45
-22 -2 -71 -9 -110 -15 -66 -11 -100 -14 -240 -25 -85 -6 -252 -13 -305 -12
-25 0 -52 0 -60 -1 -8 0 -105 -3 -215 -6 -110 -2 -240 -7 -290 -11 -49 -3
-121 -7 -160 -8 -38 -2 -128 -7 -200 -11 -71 -4 -143 -7 -160 -6 -16 1 -41 2
-55 1 -368 -18 -918 -24 -1400 -16 -157 3 -312 5 -345 4 -59 -2 -562 -2 -640
0 -22 0 -227 0 -455 -1 -525 -2 -1166 10 -1262 23 -40 6 -196 13 -347 15 -151
3 -288 7 -305 10 -17 2 -148 10 -291 16 -143 6 -271 16 -285 21 -14 6 -149 12
-300 15 -154 2 -323 11 -385 19 -60 8 -137 18 -170 22 -33 4 -70 13 -82 20
-12 7 -31 12 -42 12 -12 0 -56 17 -98 38 -146 70 -269 224 -309 386 -27 109
-15 301 27 426 50 153 113 265 190 341 74 74 202 173 236 183 11 4 27 13 33
21 7 8 21 15 31 15 11 0 19 4 19 8 0 10 70 42 91 42 8 0 20 5 27 12 17 17 80
37 102 31 12 -3 22 1 26 11 4 10 18 16 38 16 18 0 41 7 52 15 10 8 33 15 51
15 17 0 35 5 38 10 4 6 21 10 39 8 17 -1 38 2 46 7 14 9 60 18 155 32 22 3 49
12 60 19 12 8 39 14 61 14 21 0 64 2 94 5 30 3 78 7 105 9 28 1 66 7 85 14 19
6 49 11 65 11 54 -1 172 8 182 14 9 6 110 13 343 24 41 2 113 5 160 8 47 3
126 7 175 10 50 3 149 8 220 12 205 11 935 7 983 -6 23 -7 121 -16 219 -21
208 -11 431 -34 523 -55 36 -8 106 -17 155 -19 103 -6 315 -32 360 -46 95 -28
345 -51 345 -31 0 9 -28 16 -53 12 -4 -1 -42 9 -85 20 -42 12 -93 23 -112 24
-19 2 -75 13 -125 24 -49 12 -108 23 -130 26 -64 6 -169 24 -201 34 -26 9
-140 28 -314 52 -107 15 -694 75 -859 89 -85 6 -263 11 -395 9 -133 -2 -270
-2 -306 -1 -36 1 -150 -3 -255 -8 -104 -6 -278 -13 -385 -16 -107 -2 -235 -9
-285 -14 -49 -5 -166 -16 -260 -25 -93 -8 -190 -19 -215 -24 -25 -5 -81 -13
-125 -16 -44 -3 -133 -17 -199 -31 -65 -13 -128 -24 -140 -24 -37 0 -249 -70
-332 -111 -44 -21 -83 -39 -87 -39 -4 0 -36 -18 -72 -40 -36 -22 -69 -40 -73
-40 -37 0 -289 -260 -329 -341 -40 -79 -90 -193 -101 -229 -29 -96 -44 -247
-40 -390 4 -128 9 -155 35 -232 37 -106 123 -238 200 -307 107 -96 311 -183
470 -201 169 -19 427 -30 888 -40 405 -8 875 -28 1415 -60 91 -5 373 -15 628
-22 359 -9 495 -9 605 0 104 9 340 10 887 5 410 -4 813 -6 895 -5 83 1 299 4
480 6 454 6 904 22 998 35 43 7 156 11 250 10 386 -3 961 26 1018 51 13 5 69
21 124 34 307 74 490 146 663 260 79 52 124 92 230 208 72 79 138 152 146 163
33 48 106 228 132 330 25 97 29 126 28 245 -1 118 -5 150 -33 255 -54 205
-122 320 -262 445 -81 72 -195 154 -244 174 -17 8 -50 25 -73 40 -23 14 -75
37 -116 50 -40 13 -96 36 -124 50 -28 14 -111 41 -184 60 -73 20 -163 46 -198
60 -36 13 -124 36 -195 51 -72 15 -142 33 -156 41 -14 7 -48 18 -75 24 -133
31 -176 40 -254 55 -47 10 -114 25 -150 35 -74 21 -225 51 -380 75 -58 8 -163
29 -235 45 -166 37 -295 60 -337 60 -18 0 -80 9 -138 20 -193 36 -330 56 -565
80 -44 4 -123 13 -175 19 -97 11 -417 34 -710 51 -91 5 -234 14 -319 20 -209
14 -446 19 -461 10z"/>
</g>
</svg>
