<?xml version="1.0" standalone="no"?>
<!DOCTYPE svg PUBLIC "-//W3C//DTD SVG 20010904//EN"
 "http://www.w3.org/TR/2001/REC-SVG-20010904/DTD/svg10.dtd">
<svg version="1.0" xmlns="http://www.w3.org/2000/svg"
 width="1750.000000pt" height="41.000000pt" viewBox="0 0 1840.000000 41.000000"
 preserveAspectRatio="xMidYMid meet">

<g transform="translate(0.000000,41.000000) scale(0.100000,-0.100000)"
fill="#1a1a1b" stroke="none">
<path d="M17485 323 c-240 -2 -1287 -20 -1615 -28 -113 -3 -414 -7 -670 -10
-256 -3 -809 -10 -1230 -15 -421 -6 -1298 -14 -1950 -20 -652 -5 -1376 -14
-1610 -20 -234 -5 -1102 -15 -1930 -20 -828 -6 -1890 -15 -2360 -21 -470 -5
-1102 -12 -1405 -14 -302 -3 -665 -9 -805 -15 -140 -5 -433 -12 -650 -15 -217
-3 -546 -10 -730 -15 -184 -5 -517 -14 -740 -20 -223 -6 -560 -17 -750 -25
-190 -9 -457 -20 -595 -26 -155 -6 -269 -15 -300 -24 -55 -15 -3 -15 1170 5
308 6 898 15 1310 20 413 5 968 14 1235 20 598 13 2456 35 4620 55 899 8 2029
20 2510 25 2004 23 2539 29 3185 35 1181 10 2365 25 2388 29 12 3 198 7 412
11 215 3 426 7 470 10 44 3 163 10 265 15 254 14 652 50 670 61 14 8 -271 8
-895 2z"/>
</g>
</svg>
