<?xml version="1.0" standalone="no"?>
<!DOCTYPE svg PUBLIC "-//W3C//DTD SVG 20010904//EN"
 "http://www.w3.org/TR/2001/REC-SVG-20010904/DTD/svg10.dtd">
<svg version="1.0" xmlns="http://www.w3.org/2000/svg"
 width="183.000000pt" height="183.000000pt" viewBox="0 0 183.000000 183.000000"
 preserveAspectRatio="xMidYMid meet">

<g transform="translate(0.000000,183.000000) scale(0.100000,-0.100000)"
fill="#1a1a1b" stroke="none">
<path d="M395 1804 c-52 -28 -94 -76 -110 -123 -21 -64 -45 -232 -45 -316 0
-38 -7 -133 -15 -210 -9 -90 -16 -274 -17 -515 -3 -343 -1 -382 16 -455 17
-69 26 -86 68 -129 l47 -49 53 6 c50 5 202 51 223 67 6 4 21 11 35 15 46 14
288 135 408 204 285 164 480 329 549 465 22 43 25 59 21 121 -4 50 -13 85 -33
125 -119 235 -471 545 -805 710 -58 28 -113 56 -122 61 -10 5 -26 9 -36 9 -10
0 -23 5 -30 12 -20 20 -172 21 -207 2z m253 -73 c321 -132 740 -482 882 -736
33 -58 38 -147 12 -207 -26 -58 -152 -184 -267 -267 -266 -190 -688 -399 -878
-435 -53 -10 -79 20 -103 115 -17 65 -19 115 -19 399 0 179 3 379 7 445 5 66
12 219 17 340 5 121 14 237 20 258 13 42 64 104 95 118 39 17 157 1 234 -30z"/>
</g>
</svg>
